<?xml version="1.0" encoding="iso-8859-1"?>
<!-- Generator: Adobe Illustrator 19.1.0, SVG Export Plug-In . SVG Version: 6.00 Build 0)  -->
<svg version="1.1" id="Capa_1" xmlns="http://www.w3.org/2000/svg" xmlns:xlink="http://www.w3.org/1999/xlink" x="0px" y="0px"
	 viewBox="0 0 443 443" style="enable-background:new 0 0 443 443;" xml:space="preserve">
<g>
	<path d="M364,37.36v368.28c0,20.6-16.76,37.36-37.37,37.36H116.36C95.76,443,79,426.24,79,405.64V37.36C79,16.76,95.76,0,116.36,0
		h210.27C347.24,0,364,16.76,364,37.36z M349,405.64V375H94v30.64c0,12.33,10.03,22.36,22.36,22.36h210.27
		C338.96,428,349,417.97,349,405.64z M349,360V83H94v277H349z M349,68V37.36C349,25.03,338.96,15,326.63,15H116.36
		C104.03,15,94,25.03,94,37.36V68H349z"/>
	<path style="fill:#3DD0F2;" d="M349,375v30.64c0,12.33-10.04,22.36-22.37,22.36H116.36C104.03,428,94,417.97,94,405.64V375H349z
		 M244,401.1c0-12.41-10.1-22.5-22.5-22.5c-12.41,0-22.5,10.09-22.5,22.5s10.09,22.5,22.5,22.5C233.9,423.6,244,413.51,244,401.1z"
		/>
	<path style="fill:#3DD0F2;" d="M349,37.36V68H94V37.36C94,25.03,104.03,15,116.36,15h210.27C338.96,15,349,25.03,349,37.36z
		 M261,41.5c0-4.14-3.36-7.5-7.5-7.5h-64c-4.15,0-7.5,3.36-7.5,7.5s3.35,7.5,7.5,7.5h64C257.64,49,261,45.64,261,41.5z"/>
	<path d="M322.43,198.51c1.7,7.48,2.57,15.22,2.57,22.99c0,7.78-0.87,15.51-2.57,22.99c-0.78,3.41-3.82,5.84-7.32,5.84h-9.4
		c-1.21,3.52-2.64,6.97-4.29,10.33l6.65,6.65c2.48,2.47,2.91,6.33,1.04,9.3c-8.21,13.04-19.45,24.28-32.49,32.51
		c-2.97,1.87-6.83,1.43-9.31-1.05l-6.65-6.65c-3.36,1.65-6.81,3.08-10.34,4.29v9.41c0,3.5-2.42,6.53-5.83,7.31
		c-7.48,1.71-15.22,2.57-22.99,2.57c-7.78,0-15.51-0.86-22.99-2.57c-3.42-0.78-5.84-3.81-5.84-7.31v-9.41
		c-3.52-1.2-6.98-2.64-10.33-4.28l-6.65,6.64c-2.48,2.48-6.34,2.91-9.3,1.05c-13.06-8.22-24.3-19.47-32.5-32.52
		c-1.87-2.96-1.43-6.82,1.04-9.29l6.65-6.64c-1.65-3.36-3.09-6.82-4.29-10.34h-9.41c-3.5,0-6.53-2.43-7.31-5.84
		c-1.71-7.48-2.57-15.21-2.57-22.99s0.86-15.51,2.57-22.99c0.78-3.41,3.81-5.83,7.31-5.83h9.4c1.21-3.53,2.65-6.99,4.3-10.34
		l-6.65-6.65c-2.47-2.47-2.91-6.33-1.04-9.29c8.2-13.05,19.44-24.29,32.5-32.52c2.96-1.86,6.82-1.43,9.3,1.05l6.65,6.65
		c3.35-1.65,6.81-3.08,10.33-4.29v-9.41c0-3.5,2.42-6.53,5.84-7.31c14.96-3.41,31.02-3.41,45.98,0c3.41,0.78,5.83,3.81,5.83,7.31
		v9.41c3.53,1.21,6.98,2.64,10.34,4.29l6.65-6.65c2.48-2.48,6.34-2.91,9.31-1.04c13.04,8.22,24.28,19.46,32.49,32.5
		c1.87,2.97,1.44,6.83-1.04,9.3l-6.65,6.65c1.65,3.36,3.08,6.81,4.29,10.34h9.4C318.61,192.68,321.65,195.1,322.43,198.51z
		 M310,221.5c0-4.65-0.36-9.28-1.08-13.82h-8.75c-3.39,0-6.36-2.27-7.24-5.55c-1.65-6.07-4.08-11.94-7.24-17.43
		c-1.69-2.94-1.19-6.64,1.2-9.04l6.19-6.19c-5.44-7.47-12.07-14.1-19.54-19.55l-6.2,6.19c-2.39,2.4-6.1,2.89-9.04,1.2
		c-5.49-3.16-11.36-5.59-17.44-7.24c-3.27-0.88-5.54-3.85-5.54-7.24v-8.75c-9.09-1.43-18.56-1.43-27.65,0v8.75
		c0,3.39-2.27,6.36-5.54,7.24c-6.08,1.65-11.94,4.08-17.43,7.24c-2.94,1.68-6.65,1.19-9.05-1.2l-6.19-6.2
		c-7.47,5.45-14.1,12.09-19.54,19.56l6.19,6.18c2.39,2.4,2.88,6.11,1.19,9.04c-3.15,5.5-5.59,11.37-7.23,17.44
		c-0.89,3.28-3.85,5.55-7.24,5.55h-8.76c-0.71,4.54-1.07,9.17-1.07,13.82s0.36,9.28,1.07,13.83h8.76c3.39,0,6.35,2.27,7.24,5.54
		c1.64,6.08,4.08,11.94,7.23,17.44c1.69,2.94,1.2,6.64-1.19,9.04l-6.19,6.19c5.44,7.46,12.07,14.1,19.54,19.55l6.19-6.19
		c2.4-2.4,6.11-2.89,9.05-1.2c5.49,3.15,11.35,5.59,17.43,7.23c3.27,0.88,5.54,3.85,5.54,7.24v8.76c9.09,1.42,18.56,1.42,27.65,0
		v-8.76c0-3.39,2.27-6.36,5.54-7.24c6.08-1.64,11.95-4.08,17.44-7.24c2.94-1.69,6.65-1.19,9.04,1.2l6.2,6.2
		c7.47-5.45,14.1-12.09,19.54-19.56l-6.19-6.19c-2.39-2.39-2.89-6.1-1.2-9.04c3.16-5.49,5.59-11.36,7.24-17.43
		c0.88-3.27,3.85-5.54,7.24-5.54h8.75C309.64,230.78,310,226.15,310,221.5z"/>
	<path style="fill:#F48C6C;" d="M308.92,207.68c0.72,4.54,1.08,9.17,1.08,13.82s-0.36,9.28-1.08,13.83h-8.75
		c-3.39,0-6.36,2.27-7.24,5.54c-1.65,6.07-4.08,11.94-7.24,17.43c-1.69,2.94-1.19,6.65,1.2,9.04l6.19,6.19
		c-5.44,7.47-12.07,14.11-19.54,19.56l-6.2-6.2c-2.39-2.39-6.1-2.89-9.04-1.2c-5.49,3.16-11.36,5.6-17.44,7.24
		c-3.27,0.88-5.54,3.85-5.54,7.24v8.76c-9.09,1.42-18.56,1.42-27.65,0v-8.76c0-3.39-2.27-6.36-5.54-7.24
		c-6.08-1.64-11.94-4.08-17.43-7.23c-2.94-1.69-6.65-1.2-9.05,1.2l-6.19,6.19c-7.47-5.45-14.1-12.09-19.54-19.55l6.19-6.19
		c2.39-2.4,2.88-6.1,1.19-9.04c-3.15-5.5-5.59-11.36-7.23-17.44c-0.89-3.27-3.85-5.54-7.24-5.54h-8.76
		c-0.71-4.55-1.07-9.18-1.07-13.83s0.36-9.28,1.07-13.82h8.76c3.39,0,6.35-2.27,7.24-5.55c1.64-6.07,4.08-11.94,7.23-17.44
		c1.69-2.93,1.2-6.64-1.19-9.04l-6.19-6.18c5.44-7.47,12.07-14.11,19.54-19.56l6.19,6.2c2.4,2.39,6.11,2.88,9.05,1.2
		c5.49-3.16,11.35-5.59,17.43-7.24c3.27-0.88,5.54-3.85,5.54-7.24v-8.75c9.09-1.43,18.56-1.43,27.65,0v8.75
		c0,3.39,2.27,6.36,5.54,7.24c6.08,1.65,11.95,4.08,17.44,7.24c2.94,1.69,6.65,1.2,9.04-1.2l6.2-6.19
		c7.47,5.45,14.1,12.08,19.54,19.55l-6.19,6.19c-2.39,2.4-2.89,6.1-1.2,9.04c3.16,5.49,5.59,11.36,7.24,17.43
		c0.88,3.28,3.85,5.55,7.24,5.55H308.92z M278.5,221.5c0-31.43-25.57-57.01-57-57.01c-31.44,0-57.01,25.58-57.01,57.01
		s25.57,57.01,57.01,57.01C252.93,278.51,278.5,252.93,278.5,221.5z"/>
	<path d="M221.5,164.49c31.43,0,57,25.58,57,57.01s-25.57,57.01-57,57.01c-31.44,0-57.01-25.58-57.01-57.01
		S190.06,164.49,221.5,164.49z M263.5,221.5c0-23.16-18.84-42.01-42-42.01c-23.17,0-42.01,18.85-42.01,42.01
		s18.84,42.01,42.01,42.01C244.66,263.51,263.5,244.66,263.5,221.5z"/>
	<path d="M253.5,34c4.14,0,7.5,3.36,7.5,7.5s-3.36,7.5-7.5,7.5h-64c-4.15,0-7.5-3.36-7.5-7.5s3.35-7.5,7.5-7.5H253.5z"/>
	<path style="fill:#FFFFFF;" d="M221.5,179.49c23.16,0,42,18.85,42,42.01s-18.84,42.01-42,42.01c-23.17,0-42.01-18.85-42.01-42.01
		S198.33,179.49,221.5,179.49z M247.79,221.5c0-14.5-11.79-26.29-26.29-26.29S195.2,207,195.2,221.5s11.8,26.29,26.3,26.29
		S247.79,236,247.79,221.5z"/>
	<path d="M221.5,195.21c14.5,0,26.29,11.79,26.29,26.29S236,247.79,221.5,247.79S195.2,236,195.2,221.5S207,195.21,221.5,195.21z
		 M232.79,221.5c0-6.23-5.07-11.29-11.29-11.29c-6.23,0-11.3,5.06-11.3,11.29s5.07,11.29,11.3,11.29
		C227.72,232.79,232.79,227.73,232.79,221.5z"/>
	<path d="M221.5,378.6c12.4,0,22.5,10.09,22.5,22.5s-10.1,22.5-22.5,22.5c-12.41,0-22.5-10.09-22.5-22.5S209.09,378.6,221.5,378.6z
		 M229,401.1c0-4.13-3.37-7.5-7.5-7.5c-4.14,0-7.5,3.37-7.5,7.5c0,4.14,3.36,7.5,7.5,7.5C225.63,408.6,229,405.24,229,401.1z"/>
	<path style="fill:#3DD0F2;" d="M221.5,393.6c4.13,0,7.5,3.37,7.5,7.5c0,4.14-3.37,7.5-7.5,7.5c-4.14,0-7.5-3.36-7.5-7.5
		C214,396.97,217.36,393.6,221.5,393.6z"/>
</g>
<g>
</g>
<g>
</g>
<g>
</g>
<g>
</g>
<g>
</g>
<g>
</g>
<g>
</g>
<g>
</g>
<g>
</g>
<g>
</g>
<g>
</g>
<g>
</g>
<g>
</g>
<g>
</g>
<g>
</g>
</svg>
